<svg xmlns="http://www.w3.org/2000/svg" version="1.1" xmlns:xlink="http://www.w3.org/1999/xlink" xmlns:svgjs="http://svgjs.dev/svgjs" width="2000" height="1257" viewBox="0 0 2000 1257"><g transform="matrix(1,0,0,1,-1.211997170588461,1.0504523681100864)"><svg viewBox="0 0 396 249" data-background-color="#e09f3e" preserveAspectRatio="xMidYMid meet" height="1257" width="2000" xmlns="http://www.w3.org/2000/svg" xmlns:xlink="http://www.w3.org/1999/xlink"><g id="tight-bounds" transform="matrix(1,0,0,1,0.24002456022344631,-0.20808483664234245)"><svg viewBox="0 0 395.52 249.41540706065075" height="249.41540706065075" width="395.52"><g><svg viewBox="0 0 395.52 249.41540706065075" height="249.41540706065075" width="395.52"><g transform="matrix(1,0,0,1,0,164.0908245141425)"><svg viewBox="0 0 395.52 85.32458254650824" height="85.32458254650824" width="395.52"><g id="textblocktransform"><svg viewBox="0 0 395.52 85.32458254650824" height="85.32458254650824" width="395.52" id="textblock"><g><svg viewBox="0 0 395.52 85.32458254650824" height="85.32458254650824" width="395.52"><g transform="matrix(1,0,0,1,0,0)"><svg width="395.52" viewBox="-2.045969999999998 -32.20228 241.56131999999997 52.11147611827242" height="85.32458254650824" data-palette-color="#9e2a2b"><path d="M25.418 1.887v0l-1.604-8.378-13.711 2.625 1.873 9.782 2.837-0.39 0.788 4.115-11.717 2.243-0.75-3.919 1.572-0.454c0.918-0.277 1.299-0.819 1.145-1.624v0l-4.311-22.521-2.798 0.383-0.788-4.115 11.727-2.245 0.75 3.919-1.572 0.453c-0.505 0.165-0.848 0.373-1.031 0.625-0.189 0.253-0.228 0.671-0.117 1.255v0l1.437 7.503 13.711-2.625-1.705-8.908-2.788 0.381-0.788-4.115 11.717-2.243 0.75 3.919-1.573 0.453c-0.918 0.277-1.287 0.884-1.107 1.821v0l4.274 22.325 2.788-0.381 0.788 4.115-11.717 2.243-0.751-3.919 1.573-0.454c0.472-0.158 0.799-0.363 0.982-0.615 0.189-0.253 0.228-0.671 0.116-1.254zM56.544-20.976v0l2.432 18.189c0.07 0.522 0.207 0.867 0.41 1.034 0.205 0.174 0.538 0.248 0.998 0.22v0l1.578-0.12 0.524 3.915-7.771 1.039-0.379-2.835-0.155-0.03c-1.312 2.563-3.385 4.034-6.221 4.413v0c-3.324 0.444-5.927-0.284-7.808-2.184-1.883-1.907-3.07-4.701-3.562-8.382v0c-0.593-4.434 0.022-8.034 1.845-10.8 1.817-2.758 4.877-4.425 9.179-5v0c2.769-0.37 5.746-0.19 8.93 0.541zM52.992-4.379v0l-1.692-12.657c-0.968-0.301-2.252-0.345-3.851-0.131v0c-2.181 0.291-3.642 1.381-4.386 3.27-0.743 1.888-0.921 4.283-0.532 7.184v0c0.706 5.28 2.754 7.693 6.143 7.24v0c1.434-0.192 2.549-0.781 3.345-1.769 0.797-0.981 1.121-2.026 0.973-3.137zM67.523 6.58v0l-1.983-23.777c-0.047-0.558-0.168-0.936-0.365-1.134-0.197-0.198-0.525-0.277-0.983-0.239v0l-2.085 0.023-0.332-3.976 8.311-0.693 0.266 3.189c0.443-1.027 1.318-2.006 2.625-2.938 1.307-0.932 2.911-1.477 4.811-1.635v0c5.933-0.495 9.246 3.417 9.939 11.735v0c0.369 4.425-0.315 7.897-2.052 10.416-1.737 2.52-4.259 3.917-7.568 4.193v0c-1.967 0.164-3.76-0.165-5.38-0.986v0l0.565 6.776 3.993-0.132 0.324 3.887-12.676 1.056-0.312-3.737 1.612-0.285c0.486-0.107 0.833-0.277 1.041-0.508 0.215-0.232 0.298-0.644 0.249-1.235zM81.669-11.869v0c-0.456-5.468-2.338-8.064-5.647-7.788v0c-1.375 0.115-2.513 0.631-3.413 1.549-0.894 0.911-1.293 1.941-1.197 3.09v0l0.942 11.301c1.31 0.714 2.859 0.996 4.646 0.847 1.787-0.149 3.064-1.078 3.832-2.788 0.76-1.716 1.039-3.786 0.837-6.211zM94.594 4.598v0l-0.784-23.847c-0.018-0.56-0.121-0.943-0.308-1.151-0.187-0.207-0.51-0.303-0.97-0.288v0l-2.084-0.082-0.131-3.988 8.335-0.274 0.106 3.198c0.494-1.003 1.417-1.938 2.769-2.802 1.352-0.865 2.981-1.329 4.887-1.391v0c5.95-0.196 9.062 3.877 9.337 12.219v0c0.146 4.438-0.712 7.871-2.573 10.3-1.861 2.429-4.451 3.698-7.769 3.808v0c-1.972 0.065-3.747-0.354-5.324-1.256v0l0.223 6.796 3.995 0.069 0.128 3.898-12.713 0.418-0.123-3.748 1.624-0.203c0.491-0.083 0.846-0.235 1.065-0.456 0.226-0.221 0.33-0.628 0.31-1.22zM109.65-13.117v0c-0.18-5.484-1.93-8.171-5.248-8.062v0c-1.379 0.045-2.541 0.504-3.486 1.376-0.939 0.865-1.389 1.873-1.352 3.026v0l0.373 11.334c1.273 0.779 2.806 1.138 4.598 1.079 1.792-0.059 3.115-0.923 3.967-2.592 0.845-1.675 1.228-3.729 1.148-6.161zM137.224-1.401v0l0.06-3.74c-1.847 2.531-4.527 3.768-8.041 3.712v0c-5.099-0.081-7.604-2.965-7.512-8.651v0l0.158-9.908c0.014-0.887-0.388-1.353-1.208-1.4v0l-1.578-0.125 0.064-4.04 8.679 0.139-0.226 14.148c-0.028 1.74 0.198 3.057 0.677 3.952 0.479 0.894 1.492 1.354 3.039 1.378 1.546 0.025 2.794-0.432 3.742-1.37 0.955-0.938 1.443-2.081 1.465-3.427v0l0.142-8.919c0.009-0.56-0.075-0.948-0.251-1.164-0.183-0.216-0.505-0.328-0.965-0.336v0l-1.568-0.125 0.064-4.039 8.669 0.138-0.381 23.857c-0.064 3.979-1.07 6.874-3.019 8.683-1.949 1.809-4.873 2.682-8.773 2.62-3.893-0.062-6.917-0.651-9.073-1.765v0l0.11-6.859 4.695-0.315-0.037 2.36c-0.014 0.893 0.386 1.5 1.201 1.819 0.815 0.326 1.946 0.501 3.392 0.524v0c4.239 0.068 6.398-2.315 6.475-7.147zM170.244 1.686l-13.944-1.251 0.357-3.974 1.627-0.005c0.958-0.014 1.474-0.43 1.547-1.246v0l2.05-22.838-2.786-0.401 0.375-4.173 13.466 1.208c4.807 0.431 8.448 2.043 10.921 4.836 2.473 2.799 3.485 6.702 3.036 11.708v0c-0.279 3.114-0.931 5.79-1.955 8.027-1.023 2.231-2.301 3.937-3.833 5.118v0c-3.051 2.37-6.671 3.367-10.861 2.991zM172.21-26.26l-4.373-0.392-2.081 23.187 5.01 0.449c2.815 0.253 5.101-0.566 6.857-2.457 1.756-1.891 2.807-4.768 3.155-8.632v0c0.676-7.53-2.18-11.581-8.568-12.155zM199.97 1.527v0c3.544 0.509 5.727-2.101 6.549-7.829v0c0.416-2.897 0.336-5.151-0.241-6.763-0.584-1.606-1.814-2.544-3.687-2.813-1.868-0.268-3.342 0.247-4.425 1.547-1.09 1.305-1.813 3.195-2.168 5.67v0c-0.66 4.593-0.225 7.595 1.303 9.006v0c0.671 0.628 1.561 1.022 2.669 1.182zM190-8.826v0c0.346-2.409 1.002-4.446 1.969-6.112 0.974-1.672 2.13-2.893 3.466-3.664v0c2.562-1.424 5.242-1.935 8.04-1.533v0c1.953 0.281 3.561 0.835 4.822 1.662 1.262 0.828 2.212 1.712 2.852 2.653 0.647 0.935 1.127 2.233 1.441 3.894 0.308 1.654 0.308 3.553 0.001 5.698v0c-0.645 4.494-2.223 7.739-4.732 9.736-2.516 1.996-5.473 2.75-8.872 2.262-3.398-0.488-5.9-1.969-7.505-4.442-1.605-2.473-2.099-5.858-1.482-10.154zM234.978 11.301c-0.972 3.527-2.506 5.962-4.602 7.307-2.101 1.336-5.041 1.644-8.82 0.922-3.778-0.721-6.63-1.816-8.556-3.283v0l1.287-6.738 4.67 0.494-0.443 2.318c-0.168 0.877 0.126 1.544 0.881 2.001 0.747 0.462 1.831 0.828 3.251 1.099v0c2.069 0.395 3.642 0.051 4.718-1.033 1.076-1.084 1.829-2.756 2.261-5.015v0l0.508-2.662c-1.897 1.511-4.217 2.005-6.961 1.481v0c-1.676-0.32-3.092-0.923-4.247-1.809-1.153-0.892-1.978-1.956-2.475-3.191v0c-0.969-2.459-1.17-5.175-0.603-8.147v0c0.808-4.23 2.566-7.217 5.274-8.96 2.707-1.736 5.966-2.241 9.778-1.513v0c3.163 0.604 6.035 1.77 8.616 3.498v0l-3.432 17.975c-0.524 2.744-0.892 4.496-1.105 5.256zM231.335 0.415v0l1.988-10.412c-1.059-0.603-2.312-1.042-3.759-1.319v0c-1.971-0.376-3.622 0.058-4.953 1.304-1.325 1.254-2.226 3.125-2.701 5.614v0c-0.974 5.101 0.219 7.972 3.578 8.613v0c1.388 0.265 2.642 0.063 3.761-0.605 1.113-0.677 1.809-1.742 2.086-3.195z" opacity="1" transform="matrix(1,0,0,1,0,0)" fill="#9e2a2b" class="wordmark-text-0" data-fill-palette-color="primary" id="text-0"></path></svg></g></svg></g></svg></g></svg></g><g transform="matrix(1,0,0,1,99.81531650097365,0)"><svg viewBox="0 0 195.88936699805268 138.05517456025032" height="138.05517456025032" width="195.88936699805268"><g><svg xmlns="http://www.w3.org/2000/svg" xmlns:xlink="http://www.w3.org/1999/xlink" version="1.1" x="0" y="0" viewBox="5.099000000000002 18.358562011181643 89.80270377247972 63.289437988818364" enable-background="new 0 0 100 100" xml:space="preserve" height="138.05517456025032" width="195.88936699805268" class="icon-icon-0" data-fill-palette-color="accent" id="icon-0"><path d="M86.785 44.598c-4.284 1.747-6.229 4.309-7.111 6.386v-4.218c0-5.215-3.16-7.352-5.605-8.225 22.246-1.012 19.584-10.583 19.584-10.583S99.238 39.521 86.785 44.598zM80.449 64.641c-1.631-1.891-1.493-4.301-1.493-4.301s0-2.385 0-6.266c0.004-0.127 0.015-0.279 0.03-0.455v-6.853c0-7.8-7.418-8.128-7.733-8.138-0.019 0-0.035-0.004-0.053-0.007-0.089 0.001-0.173 0.002-0.263 0.003-1.648 0-8.379 0-21.171 0-14.9 0-22.673-12.22-22.673-12.22l-0.153-0.191c0 0 1.062-5.061-5.218-7.139-6.28-2.078-9.05 0.941-9.42 1.855-0.369 0.915-0.6 1.562-2.308 1.562-1.709 0-4.895-0.646-4.895 1.57 0 5.9 5.231 6.728 8.076 6.728l2.333 6.063c2.256 19.677 10.717 25.914 10.717 28.335v12.274c0 0.49-0.397 0.888-0.887 0.888h-0.804c-0.908 0-1.645 0.735-1.645 1.645 0 0.906 0.736 1.643 1.645 1.643h2.208c0.606 0 0.958-0.15 1.197-0.33-0.224-0.442-0.224-0.916-0.224-1.162v-0.104c0-1.082 0.983-2.031 2.104-2.031h0.077c0.299 0 0.543-0.244 0.543-0.541V65.516c0-3.342-1.847-6.047-1.866-6.078-0.107-0.153-0.069-0.369 0.086-0.477 0.155-0.107 0.371-0.068 0.478 0.086 0.083 0.117 1.988 2.904 1.988 6.469v11.953c0 0.678-0.55 1.23-1.23 1.23h-0.077c-0.742 0-1.417 0.639-1.417 1.342v0.104c0 0.242 0 0.556 0.139 0.83 0.169 0.273 0.467 0.476 0.805 0.58 0.202 0.051 0.446 0.082 0.746 0.082 0.018 0 0.037 0.002 0.055 0.004h4.208c0.907 0 1.643-0.735 1.643-1.643l0.088-15.033c0 0 9.235 0.83 16.604-4.738 0.612-0.535 1.613-1.518 2.371-2.812 0.096-0.164 0.305-0.22 0.469-0.123s0.221 0.308 0.125 0.472c-0.719 1.227-1.62 2.176-2.272 2.77 0.707 1.252 2.759 4.189 7.339 6.287 4.038 1.877 4.485 6.348 4.485 6.348v4.297c0 0.49-0.397 0.887-0.888 0.887l-0.575 0.004c-0.907 0-1.644 0.736-1.644 1.646 0 0.906 0.735 1.644 1.644 1.644h3.725c0.908 0 1.644-0.736 1.644-1.644l-0.026-13.299c-2.194-0.979-3.791-2.89-4.903-5.818-0.066-0.18 0.021-0.379 0.198-0.444 0.179-0.068 0.377 0.021 0.444 0.199 1.447 3.809 3.757 5.772 7.223 6.104 0.229 0.01 0.454 0.018 0.689 0.018 0.938 0 1.186 0 1.186 0s4.18-0.172 4.18 6.408v4.297c0 0.49-0.396 0.888-0.887 0.888l-0.572 0.004c-0.91 0-1.645 0.735-1.645 1.645 0 0.906 0.734 1.643 1.645 1.643h4.389c0.906 0 1.643-0.735 1.643-1.643v-8.916C82.673 68.609 82.501 67.021 80.449 64.641zM15.209 22.587c0 0.37-0.299 0.67-0.669 0.67s-0.67-0.3-0.67-0.67 0.3-0.669 0.67-0.669S15.209 22.218 15.209 22.587zM19.526 31.862c-0.594 0-1.162-0.174-1.668-0.596-1.675-1.544-1.787-3.876-0.341-6.755 1.057-2.103 2.555-3.744 2.619-3.812 0.128-0.141 0.346-0.149 0.486-0.021 0.14 0.129 0.149 0.346 0.021 0.487-0.059 0.063-5.794 6.391-2.332 9.586 2.274 1.889 6.662-3.015 6.876-3.26 0.004-0.006 0.01-0.013 0.015-0.019 0.125-0.14 0.344-0.157 0.486-0.033 0.143 0.125 0.148 0.349 0.026 0.493C25.673 27.978 22.325 31.861 19.526 31.862zM7.851 24.411c-0.018 0.508-0.431 0.914-0.942 0.914-0.523 0-0.946-0.423-0.946-0.946 0-0.39 0.236-0.725 0.573-0.869 0 0.01-0.003 0.021-0.003 0.032 0 0.522 0.424 0.946 0.946 0.946C7.611 24.488 7.737 24.46 7.851 24.411z" fill="#9e2a2b" data-fill-palette-color="accent"></path></svg></g></svg></g><g></g></svg></g><defs></defs></svg><rect width="395.52" height="249.41540706065075" fill="none" stroke="none" visibility="hidden"></rect></g></svg></g></svg>